<!--?xml version="1.0" encoding="utf-8"?-->
<!-- Generator: Adobe Illustrator 18.1.1, SVG Export Plug-In . SVG Version: 6.00 Build 0)  -->

<svg version="1.1" id="_x32_" xmlns="http://www.w3.org/2000/svg" xmlns:xlink="http://www.w3.org/1999/xlink" x="0px" y="0px" viewBox="0 0 512 512" style="width: 256px; height: 256px; opacity: 1;" xml:space="preserve">
<style type="text/css">
	.st0{fill:#4B4B4B;}
</style>
<g>
	<path class="st0" d="M77.577,338.5l7.347,10.964l11.777-3.837l-43.345-61.362l-8.858,2.884l1.187,75.099l11.785-3.844
		l-0.439-13.207l-0.22-5.43l17.807-5.803L77.577,338.5z M56.454,330.194l-0.691-24.448l13.622,20.238L56.454,330.194z" style="fill: rgb(255, 255, 255);"></path>
	<path class="st0" d="M128.602,304.966c2.023-1.886,3.527-4.072,4.518-6.55c0.992-2.488,1.496-5.162,1.52-8.022
		c0.016-2.869-0.43-5.746-1.373-8.623c-0.935-2.877-2.26-5.462-3.967-7.77c-1.714-2.309-3.698-4.17-5.957-5.592
		c-2.251-1.414-4.754-2.3-7.501-2.642c-2.747-0.333-5.608-0.032-8.591,0.943l-22.424,7.298l22.237,68.246l11.289-3.674
		l-8.371-25.682l11.134-3.633C124.091,308.298,126.586,306.868,128.602,304.966z M116.638,297.472l-10.558,3.438l-6.087-18.693
		l10.557-3.438c2.592-0.846,4.934-0.65,6.973,0.593c2.057,1.227,3.536,3.259,4.454,6.072c0.918,2.812,0.91,5.315-0.032,7.494
		C121.011,295.107,119.239,296.627,116.638,297.472z" style="fill: rgb(255, 255, 255);"></path>
	<path class="st0" d="M185.234,286.525c2.015-1.894,3.519-4.072,4.51-6.559c0.992-2.479,1.496-5.145,1.521-8.022
		c0.024-2.862-0.44-5.738-1.374-8.623c-0.934-2.877-2.26-5.462-3.974-7.762c-1.698-2.308-3.69-4.177-5.95-5.591
		c-2.259-1.422-4.762-2.3-7.501-2.642c-2.756-0.341-5.608-0.032-8.591,0.935l-22.415,7.306l22.228,68.247l11.289-3.674l-8.37-25.691
		l11.126-3.624C180.715,289.856,183.21,288.418,185.234,286.525z M173.262,279.023l-10.558,3.445l-6.087-18.692l10.557-3.438
		c2.601-0.846,4.926-0.651,6.982,0.594c2.048,1.235,3.527,3.259,4.438,6.07c0.926,2.82,0.919,5.307-0.024,7.486
		C177.635,276.666,175.863,278.186,173.262,279.023z" style="fill: rgb(255, 255, 255);"></path>
	<path class="st0" d="M249.88,295.742l13.069-4.251l-22.505-25.228c1.228-1.04,2.3-2.284,3.235-3.755
		c0.926-1.47,1.634-3.112,2.113-4.925c0.496-1.828,0.699-3.779,0.642-5.884c-0.049-2.105-0.472-4.364-1.268-6.803
		c-0.934-2.877-2.234-5.429-3.893-7.688c-1.658-2.251-3.608-4.056-5.852-5.397c-2.234-1.365-4.697-2.226-7.388-2.584
		c-2.698-0.358-5.51-0.074-8.428,0.885l-22.668,7.388l22.229,68.247l11.297-3.674l-8.867-27.227l8.12-2.649L249.88,295.742z
		 M217.971,263.727l-5.876-18.026l10.655-3.462c2.487-0.813,4.738-0.634,6.77,0.553c2.041,1.17,3.487,3.104,4.366,5.787
		c0.868,2.681,0.829,5.104-0.114,7.241c-0.951,2.154-2.666,3.633-5.161,4.438L217.971,263.727z" style="fill: rgb(255, 255, 255);"></path>
	<path class="st0" d="M268.2,261.784c0.935,2.592,1.934,4.934,3.007,7.022c1.066,2.089,2.3,3.934,3.69,5.535
		c1.39,1.601,3.097,3.024,5.12,4.275c2.698,1.666,5.503,2.698,8.428,3.128c2.918,0.431,6.071,0.098,9.42-0.999
		c3.356-1.097,6.079-2.666,8.168-4.722c2.089-2.056,3.73-4.551,4.934-7.485c0.894-2.211,1.438-4.364,1.617-6.478
		c0.179-2.097,0.106-4.324-0.236-6.648c-0.341-2.333-0.902-4.82-1.666-7.461c-0.78-2.65-1.69-5.6-2.747-8.859
		c-1.064-3.259-2.064-6.185-2.998-8.778c-0.935-2.592-1.951-4.933-3.048-7.014c-1.098-2.08-2.341-3.926-3.731-5.527
		c-1.39-1.593-3.097-3.015-5.12-4.267c-2.698-1.658-5.495-2.715-8.396-3.153c-2.894-0.43-6.022-0.098-9.38,1
		c-3.356,1.089-6.087,2.666-8.2,4.73c-2.113,2.072-3.771,4.568-4.966,7.51c-0.902,2.194-1.438,4.348-1.626,6.462
		c-0.179,2.113-0.082,4.324,0.276,6.648c0.365,2.316,0.935,4.796,1.707,7.445c0.772,2.641,1.69,5.591,2.755,8.859
		C266.266,256.266,267.273,259.192,268.2,261.784z M273.019,229.25c0.504-1.365,1.268-2.577,2.268-3.65
		c0.991-1.064,2.276-1.861,3.852-2.364c1.568-0.52,3.072-0.634,4.51-0.358c1.439,0.268,2.739,0.821,3.902,1.642
		c0.772,0.528,1.479,1.17,2.105,1.909c0.634,0.756,1.292,1.797,1.968,3.129c0.666,1.342,1.414,3.056,2.21,5.169
		c0.812,2.097,1.739,4.779,2.804,8.038c1.064,3.259,1.893,5.982,2.478,8.152c0.586,2.186,0.992,3.991,1.236,5.438
		c0.228,1.438,0.309,2.658,0.228,3.624c-0.065,0.984-0.252,1.918-0.569,2.788c-0.455,1.356-1.187,2.584-2.17,3.674
		c-0.991,1.105-2.275,1.91-3.844,2.422c-1.569,0.512-3.08,0.618-4.527,0.309c-1.439-0.309-2.78-0.87-3.999-1.674
		c-0.764-0.52-1.472-1.162-2.105-1.902c-0.634-0.756-1.284-1.78-1.943-3.08c-0.666-1.301-1.39-3.007-2.162-5.128
		c-0.788-2.113-1.707-4.804-2.763-8.063c-1.065-3.259-1.91-5.966-2.512-8.135c-0.626-2.171-1.056-3.991-1.292-5.462
		c-0.244-1.47-0.325-2.706-0.26-3.681C272.507,231.062,272.702,230.136,273.019,229.25z" style="fill: rgb(255, 255, 255);"></path>
	<polygon class="st0" points="358.488,260.37 355.432,185.874 343.647,189.718 346.517,237.971 320.419,197.276 308.723,201.088 
		350.036,263.118 	" style="fill: rgb(255, 255, 255);"></polygon>
	<polygon class="st0" points="407.749,168.831 369.648,181.241 391.876,249.488 429.978,237.085 426.101,225.194 399.297,233.923 
		393.9,217.344 416.73,209.907 412.853,198.024 390.023,205.469 384.813,189.458 411.617,180.721 	" style="fill: rgb(255, 255, 255);"></polygon>
	<path class="st0" d="M465.91,160.922c-3.186-2.788-6.438-4.511-9.777-5.194c-3.341-0.682-6.982-0.382-10.932,0.91l-20.88,6.795
		l22.229,68.255l20.88-6.803c3.958-1.292,7.079-3.186,9.371-5.705c2.3-2.512,3.901-5.827,4.844-9.956
		c0.39-1.748,0.568-3.52,0.561-5.316c-0.017-1.804-0.236-3.706-0.651-5.722c-0.43-2.024-0.991-4.21-1.699-6.559
		c-0.698-2.348-1.511-4.934-2.422-7.746c-0.918-2.811-1.78-5.372-2.601-7.688c-0.805-2.308-1.65-4.405-2.487-6.29
		c-0.862-1.877-1.804-3.544-2.853-5.015C468.445,163.425,467.259,162.101,465.91,160.922z M470.071,203.356
		c0.016,1.048-0.122,2.048-0.414,2.991c-0.984,3.43-3.341,5.754-7.079,6.973l-8.607,2.796l-14.491-44.466l8.607-2.804
		c3.747-1.219,7.014-0.732,9.834,1.463c0.788,0.585,1.487,1.308,2.097,2.178c0.609,0.861,1.227,1.951,1.828,3.276
		c0.609,1.317,1.268,2.942,1.951,4.876c0.682,1.934,1.47,4.226,2.348,6.924c0.877,2.674,1.593,5.015,2.178,6.965
		c0.585,1.975,1.016,3.674,1.3,5.096C469.908,201.056,470.054,202.292,470.071,203.356z" style="fill: rgb(255, 255, 255);"></path>
	<path class="st0" d="M467.811,111.987l-30.397,9.899c-0.95-1.284-1.804-2.625-2.787-3.885c-20.27-26.252-46.652-48.09-76.31-63.158
		c-53.714-27.317-114.866-32.088-172.189-13.418C128.797,60.1,82.177,99.966,54.861,153.68
		c-15.093,29.625-23.561,62.826-24.496,95.994c-0.049,1.584,0.048,3.186,0.04,4.779L0,264.353l4.153,12.768l467.812-152.374
		L467.811,111.987z M47.384,242.336c1.845-28.324,9.346-55.616,22.318-81.113c25.317-49.765,68.49-86.688,121.579-103.975
		c53.08-17.287,109.721-12.882,159.486,12.436c25.512,12.972,47.652,30.616,65.808,52.405c1.431,1.716,2.65,3.528,4.023,5.275
		l-84.819,27.626c-1.446-1.146-2.869-2.333-4.348-3.397c-5.356-3.869-11.086-7.364-17.052-10.396
		c-30.625-15.605-65.491-18.336-98.367-7.624c-32.681,10.647-59.249,33.38-74.814,64.029c-3.031,5.966-5.608,12.175-7.648,18.45
		c-0.569,1.731-1.024,3.527-1.52,5.299l-84.786,27.618C47.319,246.749,47.237,244.546,47.384,242.336z M320.004,160.126
		l-172.197,56.088c0.934-2.552,1.861-5.112,2.966-7.567c0.764-1.674,1.545-3.324,2.382-4.965
		c13.987-27.471,37.825-47.839,67.108-57.381c29.3-9.542,60.558-7.112,88.038,6.844c1.641,0.837,3.242,1.723,4.852,2.616
		C315.494,157.094,317.745,158.622,320.004,160.126z" style="fill: rgb(255, 255, 255);"></path>
	<path class="st0" d="M512,247.659l-4.153-12.76L40.037,387.265l4.153,12.76l30.429-9.907c0.951,1.276,1.804,2.625,2.78,3.877
		c20.238,26.236,46.628,48.066,76.302,63.135c53.706,27.349,114.865,32.12,172.197,13.443
		c57.332-18.669,103.951-58.543,131.259-112.282c15.101-29.682,23.57-62.866,24.48-95.962c0.049-1.641,0.041-3.202,0.049-4.795
		L512,247.659z M364.17,295.806c-0.927,2.536-1.845,5.079-2.959,7.558c-0.748,1.658-1.552,3.324-2.374,4.941
		c-13.971,27.471-37.801,47.855-67.109,57.405c-29.3,9.542-60.566,7.103-88.045-6.876c-1.609-0.821-3.242-1.682-4.811-2.601
		c-2.357-1.341-4.6-2.86-6.851-4.356L364.17,295.806z M464.617,269.676c-1.828,28.308-9.33,55.592-22.294,81.105
		c-25.317,49.756-68.491,86.679-121.58,103.974c-53.081,17.295-109.73,12.874-159.486-12.435
		c-25.496-12.963-47.628-30.6-65.784-52.406c-1.414-1.69-2.666-3.535-4.032-5.283l84.803-27.616c1.447,1.138,2.86,2.316,4.356,3.389
		c5.413,3.917,11.135,7.42,17.012,10.412c30.632,15.596,65.532,18.311,98.269,7.648c32.745-10.663,59.347-33.412,74.911-64.06
		c2.999-5.868,5.559-12.07,7.632-18.434c0.578-1.747,1.025-3.527,1.528-5.299l84.819-27.625
		C464.69,265.255,464.771,267.474,464.617,269.676z" style="fill: rgb(255, 255, 255);"></path>
	<polygon class="st0" points="198.027,121.601 208.666,110.678 223.701,113.238 216.59,99.754 223.677,86.247 208.658,88.839 
		198.002,77.932 195.816,93.017 182.146,99.771 195.824,106.516 	" style="fill: rgb(255, 255, 255);"></polygon>
	<polygon class="st0" points="313.974,390.402 303.335,401.326 288.299,398.766 295.41,412.249 288.324,425.749 303.351,423.164 
		313.99,434.079 316.184,418.987 329.846,412.225 316.168,405.495 	" style="fill: rgb(255, 255, 255);"></polygon>
	<polygon class="st0" points="119.767,186.711 132.21,177.892 117.646,173.39 113.119,158.825 104.317,171.277 89.07,171.098 
		98.196,183.305 93.312,197.756 107.746,192.847 119.97,201.958 	" style="fill: rgb(255, 255, 255);"></polygon>
	<polygon class="st0" points="392.225,325.293 379.79,334.111 394.346,338.622 398.881,353.178 407.684,340.719 422.931,340.914 
		413.804,328.69 418.688,314.248 404.246,319.164 392.03,310.045 	" style="fill: rgb(255, 255, 255);"></polygon>
	<polygon class="st0" points="186.705,392.231 177.895,379.788 173.376,394.352 158.82,398.887 171.271,407.682 171.092,422.928 
		183.308,413.801 197.742,418.686 192.841,404.252 201.952,392.028 	" style="fill: rgb(255, 255, 255);"></polygon>
	<polygon class="st0" points="325.288,119.772 334.105,132.208 338.616,117.644 353.173,113.116 340.722,104.314 340.9,89.075 
		328.685,98.202 314.242,93.309 319.159,107.752 310.04,119.976 	" style="fill: rgb(255, 255, 255);"></polygon>
</g>
</svg>
