<!--?xml version="1.0" encoding="utf-8"?-->
<!-- Generator: Adobe Illustrator 18.0.0, SVG Export Plug-In . SVG Version: 6.00 Build 0)  -->

<svg version="1.1" id="_x32_" xmlns="http://www.w3.org/2000/svg" xmlns:xlink="http://www.w3.org/1999/xlink" x="0px" y="0px" viewBox="0 0 512 512" style="width: 256px; height: 256px; opacity: 1;" xml:space="preserve">
<style type="text/css">
	.st0{fill:#FFFFFF;}
</style>
<g>
	<path class="st0" d="M483.503,450.076h-6.333v-6.193v-27.866h-28.497h-6.333v-6.192V381.96h-28.497h-31.03V237.09l73.143,93.229
		l28.64-21.484L242.298,0L0,308.835l28.64,21.484l73-93.047v187.415v53.874H86.442V512h62.694v-33.439h-18.998v-53.874h224.178
		v53.874h-17.098V512h17.098h28.498h17.098v-33.439h-17.098v-53.874v-14.862h31.03v6.192v27.866h28.497h6.333v6.193v27.866h28.497
		h6.333V512H512v-34.058v-27.866H483.503z M233.915,374.529h-75.518v-31.581h75.518V374.529z M233.915,326.228h-75.518v-31.581
		h75.518V326.228z M233.915,277.928h-75.518v-31.581h75.518V277.928z M326.531,374.529h-75.518v-31.581h75.518V374.529z
		 M326.531,326.228h-75.518v-31.581h75.518V326.228z M326.531,277.928h-75.518v-31.581h75.518V277.928z"></path>
	<polygon class="st0" points="111.139,138.599 154.835,88.478 154.835,34.567 164.334,34.567 164.334,1.128 101.64,1.128 
		101.64,34.567 111.139,34.567 	"></polygon>
</g>
</svg>
